# Blender v2.76 (sub 0) OBJ File: 'block_in_block.blend'
# www.blender.org
mtllib block_in_block.mtl
o Cube.001_Cube.002
v 0.312146 -0.312146 -0.312146
v 0.312146 0.312146 -0.312146
v 0.312146 -0.312146 0.312146
v 0.312146 0.312146 0.312146
v -0.312146 -0.312146 -0.312146
v -0.312146 0.312146 -0.312146
v -0.312146 -0.312146 0.312146
v -0.312146 0.312146 0.312146
vt 1.000000 1.000000
vt 0.000000 1.000000
vt -0.000000 0.000000
vt 1.000000 0.000000
vn 1.000000 0.000000 -0.000000
vn 0.000000 0.000000 1.000000
vn -1.000000 0.000000 0.000000
vn -0.000000 0.000000 -1.000000
vn 0.000000 -1.000000 -0.000000
vn 0.000000 1.000000 0.000000
g Cube.001_Cube.002_Material.002
usemtl Material.002
s off
f 2/1/1 4/2/1 3/3/1 1/4/1
f 4/1/2 8/2/2 7/3/2 3/4/2
f 8/1/3 6/2/3 5/3/3 7/4/3
f 6/1/4 2/2/4 1/3/4 5/4/4
f 1/2/5 3/3/5 7/4/5 5/1/5
f 6/4/6 8/1/6 4/2/6 2/3/6
o Cube_Cube.001
v -0.498844 -0.498844 0.498844
v -0.498844 0.498844 0.498844
v -0.498844 -0.498844 -0.498844
v -0.498844 0.498844 -0.498844
v 0.498844 -0.498844 0.498844
v 0.498844 0.498844 0.498844
v 0.498844 -0.498844 -0.498844
v 0.498844 0.498844 -0.498844
vt 1.000000 1.000000
vt 0.000000 1.000000
vt 0.000000 -0.000000
vt 1.000000 -0.000000
vn -1.000000 0.000000 0.000000
vn 0.000000 0.000000 -1.000000
vn 1.000000 0.000000 0.000000
vn 0.000000 0.000000 1.000000
vn 0.000000 -1.000000 0.000000
vn 0.000000 1.000000 0.000000
g Cube_Cube.001_Material.001
usemtl Material.001
s off
f 10/5/7 12/6/7 11/7/7 9/8/7
f 12/5/8 16/6/8 15/7/8 11/8/8
f 16/5/9 14/6/9 13/7/9 15/8/9
f 14/5/10 10/6/10 9/7/10 13/8/10
f 9/6/11 11/7/11 15/8/11 13/5/11
f 14/8/12 16/5/12 12/6/12 10/7/12
